<svg width="73.734" height="52.805" viewBox="0 0 73.734 52.805" xmlns="http://www.w3.org/2000/svg">
  <g stroke-linecap="round" fill-rule="nonzero" stroke="#7eb8f7" stroke-width="0.5" fill="#7eb8f7">
    <path d="M 45.75 38.93 Q 39 38.93 33.6 37.542 Q 28.2 36.155 24.375 33.567 Q 20.55 30.98 18.525 27.38 Q 16.5 23.78 16.5 19.43 Q 16.5 15.08 18.525 11.517 Q 20.55 7.955 24.375 5.367 Q 28.2 2.78 33.6 1.392 Q 39 0.005 45.75 0.005 A 42.727 42.727 0 0 1 59.79 2.152 A 33.219 33.219 0 0 1 60.187 2.292 Q 66.525 4.58 70.125 8.93 Q 73.725 13.28 73.725 19.43 Q 73.725 25.88 70.125 30.23 Q 66.525 34.58 60.188 36.755 Q 53.85 38.93 45.75 38.93 Z M 39 27.455 A 36.896 36.896 0 0 0 47.474 26.61 A 22.618 22.618 0 0 0 47.7 26.555 Q 51.3 25.655 53.175 23.892 Q 55.05 22.13 55.05 19.43 Q 55.05 15.455 50.85 13.43 A 21.903 21.903 0 0 0 43.547 11.613 A 46.265 46.265 0 0 0 39 11.405 Q 33.3 11.405 28.537 12.08 A 20.799 20.799 0 0 0 21.256 14.301 A 12.368 12.368 0 0 0 20.887 14.517 Q 18 16.28 18 19.43 Q 18 22.58 20.888 24.342 A 19.448 19.448 0 0 0 27.95 26.691 A 33.406 33.406 0 0 0 28.538 26.78 Q 33.3 27.455 39 27.455 Z M 0 52.805 L 0 1.055 L 16.95 1.055 L 18 15.305 L 18 52.805 L 0 52.805 Z"/>
  </g>
</svg>
